<svg width="1917" height="969" viewBox="0 0 1917 969" fill="none" xmlns="http://www.w3.org/2000/svg">
<path d="M1.42486 330.688C5.56207 319.03 17.0998 312.149 28.8468 313.471C33.7423 314.022 38.6336 314.459 43.5513 314.169C166.205 306.931 318.122 377.404 479.843 473.913C331.797 353.703 196.299 247.364 36.9357 356.644C25.5526 364.45 9.42497 361.693 2.80347 349.558C0.143361 344.683 -0.817585 338.84 0.76877 332.814C0.955953 332.103 1.17431 331.394 1.42486 330.688Z" fill="#E6E6E6" fill-opacity="0.35"/>
<path d="M819.46 42.3504C829.569 48.8184 833.73 61.1192 830.36 72.0849L829.979 73.3222C826.602 84.3304 819.247 93.5788 809.503 99.6662C670.037 186.792 831.509 298.293 573.396 478.268C698.386 344.055 801.193 33.2458 816.811 40.8631C817.711 41.3018 818.595 41.7972 819.46 42.3504Z" fill="#E6E6E6" fill-opacity="0.35"/>
<path d="M1033.23 723.659C1028.03 734.5 1016.36 740.105 1005.11 738.049L1003.84 737.817C992.543 735.758 982.518 729.527 975.338 720.541C872.574 591.921 781.413 766.046 572.691 530.228C720.329 638.835 1040.07 704.377 1034.39 720.843C1034.06 721.792 1033.68 722.732 1033.23 723.659Z" fill="#E6E6E6" fill-opacity="0.35"/>
<path d="M845.402 715.618C840.05 718.599 831.418 718.181 824.45 714.948L823.663 714.583C816.667 711.34 811.253 706.79 808.193 701.815C764.392 630.602 673.445 676.813 579.888 541.82C656.583 615.22 853.35 709.791 846.666 714.802C846.281 715.09 845.86 715.363 845.402 715.618Z" fill="#E6E6E6" fill-opacity="0.35"/>
<path d="M887.609 431.569C886.286 437.566 880.252 443.774 873.221 446.867L872.427 447.216C865.37 450.323 858.387 451.375 852.646 450.377C770.477 436.082 744.671 535.047 581.932 515.858C687.537 506.888 888.53 421.735 887.838 430.078C887.798 430.559 887.723 431.056 887.609 431.569Z" fill="#E6E6E6" fill-opacity="0.35"/>
<path d="M65.2576 803.554C59.3587 793.08 61.4418 780.259 69.5488 772.166L70.4633 771.253C78.5966 763.125 89.4185 758.426 100.87 757.643C264.773 746.44 174.389 571.909 486.495 534.64C313.337 594.236 77.1244 820.2 66.8998 806.116C66.311 805.304 65.7621 804.45 65.2576 803.554Z" fill="#E6E6E6" fill-opacity="0.35"/>
<path d="M724.406 801.672C718.343 805.73 710.562 804.921 705.386 800.193L704.802 799.66C699.604 794.916 696.362 788.374 695.447 781.293C682.36 679.938 581.032 742.658 546.538 550.26C589.053 655.533 733.944 793.674 725.881 800.555C725.416 800.952 724.925 801.325 724.406 801.672Z" fill="#E6E6E6" fill-opacity="0.35"/>
<path d="M540.836 968.379C531.549 968.455 523.732 962.19 521.389 953.593L521.124 952.623C518.768 943.995 519.741 934.823 523.585 926.7C578.6 810.439 426.875 806.314 520.932 578.91C494.891 719.771 556.545 966.553 543.183 968.223C542.413 968.319 541.63 968.372 540.836 968.379Z" fill="#6C63FF" fill-opacity="0.35"/>
<path d="M204.694 809.495C198.711 802.368 198.532 792.33 203.635 785.035L204.211 784.212C209.329 776.887 216.988 771.788 225.674 769.576C349.992 737.925 256.367 618.044 490.883 545.661C366.171 615.397 216.116 820.47 206.31 811.21C205.746 810.676 205.206 810.105 204.694 809.495Z" fill="#6C63FF" fill-opacity="0.35"/>
<path d="M280.121 705.418C276.337 701.87 276.235 696.532 279.478 692.436L279.844 691.974C283.096 687.861 287.956 684.829 293.464 683.291C372.293 661.285 313.091 601.326 461.811 553.064C382.688 595.367 287.348 710.789 281.144 706.264C280.786 706.003 280.445 705.721 280.121 705.418Z" fill="#6C63FF" fill-opacity="0.35"/>
<path d="M390.364 781.264C385.579 779.277 383.614 774.316 385.216 769.337L385.396 768.776C387.001 763.778 390.489 759.225 395.107 755.844C461.201 707.442 384.777 672.185 507.11 574.556C447.848 642.063 399.011 783.744 391.617 781.696C391.192 781.578 390.773 781.434 390.364 781.264Z" fill="#E6E6E6" fill-opacity="0.35"/>
<path d="M67.8462 444.994L79.8679 482.123H118.771L87.2981 505.069L99.3198 542.198L67.8462 519.251L36.3725 542.198L48.3943 505.069L16.9209 482.123H55.8244L67.8462 444.994Z" fill="#6C63FF" fill-opacity="0.35"/>
<path d="M603.959 0L615.98 37.1284H654.884L623.41 60.075L635.432 97.2035L603.959 74.2568L572.485 97.2035L584.507 60.075L553.033 37.1284H591.937L603.959 0Z" fill="#E6E6E6" fill-opacity="0.35"/>
<path d="M888.561 398.506L900.583 435.634H939.486L908.012 458.581L920.035 495.709L888.561 472.763L857.087 495.709L869.109 458.581L837.636 435.634H876.539L888.561 398.506Z" fill="#6C63FF" fill-opacity="0.35"/>
<path d="M312.736 803.652L324.758 840.781H363.662L332.188 863.727L344.21 900.856L312.736 877.909L281.263 900.856L293.284 863.727L261.811 840.781H300.714L312.736 803.652Z" fill="#6C63FF" fill-opacity="0.35"/>
<path d="M531.153 398.506L543.175 435.634H582.079L550.605 458.581L562.627 495.709L531.153 472.763L499.68 495.709L511.701 458.581L480.228 435.634H519.132L531.153 398.506Z" fill="#6C63FF" fill-opacity="0.35"/>
<path d="M831.511 0L843.533 37.1284H882.436L850.963 60.075L862.985 97.2035L831.511 74.2569L800.038 97.2035L812.059 60.075L780.586 37.1284H819.489L831.511 0Z" fill="#E6E6E6" fill-opacity="0.35"/>
<path d="M47.4551 733.796L62.7006 769.712L101.452 766.261L72.1229 791.91L87.3684 827.827L53.9965 807.762L24.6676 833.411L33.3716 795.361L0 775.296L38.751 771.845L47.4551 733.796Z" fill="#E6E6E6" fill-opacity="0.35"/>
<path d="M380.263 47.8289C387.28 44.3621 395.167 46.7007 399.632 52.9821L400.136 53.6907C404.621 59.993 406.752 67.9662 406.378 76.1206C401.027 192.834 517.357 140.662 517.166 363.984C492.854 237.458 368.923 55.1015 378.532 48.8179C379.085 48.456 379.663 48.1254 380.263 47.8289Z" fill="#6C63FF" fill-opacity="0.35"/>
<path d="M278.814 220.828C281.924 216.931 287.028 216.394 291.197 219.145L291.668 219.455C295.853 222.214 299.126 226.593 301.016 231.712C328.069 304.984 381.002 243.646 438.499 381.324C391.986 309.448 274.218 228.155 278.081 221.872C278.304 221.51 278.548 221.162 278.814 220.828Z" fill="#E6E6E6" fill-opacity="0.35"/>
<path d="M189.267 433.807C189.693 428.832 193.638 425.538 198.627 425.498L199.19 425.494C204.197 425.452 209.344 427.266 213.752 430.467C276.834 476.277 286.847 395.76 410.92 478.119C332.435 444.326 189.506 442.461 189.236 435.083C189.221 434.658 189.23 434.232 189.267 433.807Z" fill="#E6E6E6" fill-opacity="0.35"/>
<path d="M1569.48 686.112C1570.87 682.195 1574.75 679.883 1578.69 680.327C1580.34 680.512 1581.98 680.659 1583.63 680.562C1624.85 678.13 1675.89 701.809 1730.23 734.236C1680.48 693.845 1634.96 658.115 1581.41 694.834C1577.59 697.456 1572.17 696.53 1569.94 692.453C1569.05 690.815 1568.73 688.851 1569.26 686.827C1569.32 686.588 1569.39 686.349 1569.48 686.112Z" fill="#E6E6E6" fill-opacity="0.35"/>
<path d="M1844.34 589.23C1847.74 591.403 1849.14 595.536 1848 599.22L1847.88 599.636C1846.74 603.335 1844.27 606.442 1841 608.488C1794.14 637.763 1848.39 675.227 1761.66 735.7C1803.66 690.604 1838.2 586.17 1843.45 588.73C1843.75 588.877 1844.05 589.044 1844.34 589.23Z" fill="#E6E6E6" fill-opacity="0.35"/>
<path d="M1916.17 818.152C1914.42 821.794 1910.5 823.678 1906.72 822.987L1906.29 822.909C1902.5 822.217 1899.13 820.124 1896.72 817.104C1862.19 773.888 1831.56 832.394 1761.43 753.158C1811.03 789.651 1918.47 811.673 1916.56 817.206C1916.45 817.524 1916.32 817.84 1916.17 818.152Z" fill="#E6E6E6" fill-opacity="0.35"/>
<path d="M1853.06 815.45C1851.26 816.452 1848.36 816.311 1846.02 815.225L1845.75 815.103C1843.4 814.013 1841.58 812.484 1840.56 810.812C1825.84 786.885 1795.28 802.412 1763.84 757.054C1789.61 781.716 1855.73 813.493 1853.48 815.176C1853.35 815.273 1853.21 815.365 1853.06 815.45Z" fill="#E6E6E6" fill-opacity="0.35"/>
<path d="M1867.24 720.008C1866.8 722.023 1864.77 724.109 1862.41 725.149L1862.14 725.266C1859.77 726.31 1857.42 726.663 1855.49 726.328C1827.88 721.525 1819.21 754.777 1764.53 748.33C1800.01 745.316 1867.55 716.704 1867.32 719.507C1867.3 719.669 1867.28 719.836 1867.24 720.008Z" fill="#E6E6E6" fill-opacity="0.35"/>
<path d="M1590.93 844.997C1588.94 841.478 1589.64 837.17 1592.37 834.45L1592.68 834.143C1595.41 831.413 1599.04 829.834 1602.89 829.571C1657.96 825.806 1627.6 767.163 1732.46 754.641C1674.28 774.665 1594.91 850.59 1591.48 845.858C1591.28 845.585 1591.1 845.298 1590.93 844.997Z" fill="#E6E6E6" fill-opacity="0.35"/>
<path d="M1812.4 844.364C1810.37 845.728 1807.75 845.456 1806.01 843.867L1805.82 843.688C1804.07 842.094 1802.98 839.896 1802.67 837.517C1798.28 803.461 1764.23 824.535 1752.64 759.889C1766.92 795.261 1815.61 841.677 1812.9 843.989C1812.74 844.122 1812.58 844.247 1812.4 844.364Z" fill="#E6E6E6" fill-opacity="0.35"/>
<path d="M1750.72 900.378C1747.6 900.404 1744.98 898.299 1744.19 895.41L1744.1 895.085C1743.31 892.185 1743.63 889.104 1744.93 886.374C1763.41 847.31 1712.43 845.924 1744.03 769.516C1735.29 816.846 1756 899.765 1751.51 900.326C1751.25 900.359 1750.99 900.376 1750.72 900.378Z" fill="#6C63FF" fill-opacity="0.35"/>
<path d="M1637.78 846.993C1635.77 844.598 1635.71 841.225 1637.42 838.774L1637.62 838.498C1639.34 836.036 1641.91 834.323 1644.83 833.58C1686.6 822.945 1655.14 782.665 1733.94 758.344C1692.03 781.775 1641.62 850.681 1638.32 847.569C1638.13 847.39 1637.95 847.198 1637.78 846.993Z" fill="#6C63FF" fill-opacity="0.35"/>
<path d="M1663.12 812.023C1661.85 810.831 1661.82 809.038 1662.91 807.661L1663.03 807.506C1664.12 806.124 1665.75 805.105 1667.61 804.589C1694.09 797.195 1674.2 777.048 1724.17 760.832C1697.58 775.046 1665.55 813.828 1663.47 812.308C1663.35 812.22 1663.23 812.125 1663.12 812.023Z" fill="#6C63FF" fill-opacity="0.35"/>
<path d="M1700.16 837.508C1698.56 836.84 1697.9 835.173 1698.43 833.5L1698.49 833.311C1699.03 831.632 1700.21 830.102 1701.76 828.966C1723.97 812.703 1698.29 800.857 1739.39 768.053C1719.48 790.735 1703.07 838.341 1700.58 837.652C1700.44 837.613 1700.3 837.565 1700.16 837.508Z" fill="#E6E6E6" fill-opacity="0.35"/>
<path d="M1591.8 724.52L1595.84 736.995H1608.91L1598.33 744.705L1602.37 757.18L1591.8 749.47L1581.22 757.18L1585.26 744.705L1574.69 736.995H1587.76L1591.8 724.52Z" fill="#6C63FF" fill-opacity="0.35"/>
<path d="M1771.93 575L1775.97 587.475H1789.04L1778.47 595.185L1782.51 607.661L1771.93 599.951L1761.36 607.661L1765.4 595.185L1754.82 587.475H1767.89L1771.93 575Z" fill="#E6E6E6" fill-opacity="0.35"/>
<path d="M1867.56 708.899L1871.6 721.375H1884.67L1874.1 729.085L1878.14 741.56L1867.56 733.85L1856.98 741.56L1861.02 729.085L1850.45 721.375H1863.52L1867.56 708.899Z" fill="#6C63FF" fill-opacity="0.35"/>
<path d="M1674.08 845.03L1678.12 857.505H1691.19L1680.62 865.216L1684.66 877.691L1674.08 869.981L1663.51 877.691L1667.54 865.216L1656.97 857.505H1670.04L1674.08 845.03Z" fill="#6C63FF" fill-opacity="0.35"/>
<path d="M1747.47 708.899L1751.51 721.375H1764.58L1754.01 729.085L1758.04 741.56L1747.47 733.85L1736.89 741.56L1740.93 729.085L1730.36 721.375H1743.43L1747.47 708.899Z" fill="#6C63FF" fill-opacity="0.35"/>
<path d="M1848.39 575L1852.43 587.475H1865.5L1854.93 595.185L1858.97 607.661L1848.39 599.951L1837.82 607.661L1841.85 595.185L1831.28 587.475H1844.35L1848.39 575Z" fill="#E6E6E6" fill-opacity="0.35"/>
<path d="M1584.95 821.558L1590.07 833.626L1603.09 832.466L1593.23 841.084L1598.36 853.152L1587.14 846.411L1577.29 855.029L1580.21 842.244L1569 835.502L1582.02 834.342L1584.95 821.558Z" fill="#E6E6E6" fill-opacity="0.35"/>
<path d="M1696.77 591.071C1699.13 589.906 1701.78 590.692 1703.28 592.802L1703.45 593.041C1704.95 595.158 1705.67 597.837 1705.54 600.577C1703.75 639.793 1742.83 622.263 1742.77 697.3C1734.6 654.787 1692.96 593.515 1696.19 591.403C1696.37 591.282 1696.57 591.171 1696.77 591.071Z" fill="#6C63FF" fill-opacity="0.35"/>
<path d="M1662.68 649.199C1663.73 647.889 1665.44 647.709 1666.84 648.633L1667 648.737C1668.41 649.664 1669.51 651.136 1670.14 652.856C1679.23 677.475 1697.02 656.865 1716.34 703.126C1700.71 678.975 1661.14 651.661 1662.44 649.549C1662.51 649.428 1662.59 649.311 1662.68 649.199Z" fill="#E6E6E6" fill-opacity="0.35"/>
<path d="M1632.59 720.761C1632.74 719.09 1634.06 717.983 1635.74 717.97L1635.93 717.968C1637.61 717.954 1639.34 718.563 1640.82 719.639C1662.02 735.031 1665.38 707.977 1707.07 735.65C1680.7 724.296 1632.67 723.669 1632.58 721.19C1632.58 721.047 1632.58 720.904 1632.59 720.761Z" fill="#E6E6E6" fill-opacity="0.35"/>
</svg>
